<svg xmlns="http://www.w3.org/2000/svg" viewBox="0 0 100 116"><defs><style>.cls-1{fill:#244d4d;}</style></defs><g id="Layer_2" data-name="Layer 2"><g id="Layer_1-2" data-name="Layer 1"><path class="cls-1" d="M2,0A2,2,0,0,0,.89.34,2,2,0,0,0,0,2.39,2,2,0,0,0,4,2,2,2,0,0,0,3.41.59,2,2,0,0,0,2,0Z"/><path class="cls-1" d="M2,16a2,2,0,1,0,2,2,2,2,0,0,0-.59-1.41A2,2,0,0,0,2,16Z"/><path class="cls-1" d="M2,32a2,2,0,1,0,2,2,2,2,0,0,0-.59-1.41A2,2,0,0,0,2,32Z"/><path class="cls-1" d="M2,48a2,2,0,1,0,2,2,2,2,0,0,0-.59-1.41A2,2,0,0,0,2,48Z"/><path class="cls-1" d="M2,64a2,2,0,1,0,2,2,2,2,0,0,0-.59-1.41A2,2,0,0,0,2,64Z"/><path class="cls-1" d="M2,80a2,2,0,1,0,2,2,2,2,0,0,0-.59-1.41A2,2,0,0,0,2,80Z"/><path class="cls-1" d="M2,96a2,2,0,1,0,2,2,2,2,0,0,0-.59-1.41A2,2,0,0,0,2,96Z"/><path class="cls-1" d="M2,112a2,2,0,0,0-1.11.34,2,2,0,0,0-.3,3.07,2,2,0,0,0,2.18.44,2,2,0,0,0,.89-.74A2,2,0,0,0,4,114a2,2,0,0,0-.59-1.41A2,2,0,0,0,2,112Z"/><path class="cls-1" d="M18,0a2,2,0,0,0-1.11.34A2,2,0,0,0,16,2.39,2,2,0,0,0,20,2,2,2,0,0,0,19.41.59,2,2,0,0,0,18,0Z"/><path class="cls-1" d="M18,16a2,2,0,1,0,2,2,2,2,0,0,0-2-2Z"/><path class="cls-1" d="M18,32a2,2,0,1,0,2,2,2,2,0,0,0-2-2Z"/><path class="cls-1" d="M18,48a2,2,0,1,0,2,2,2,2,0,0,0-2-2Z"/><path class="cls-1" d="M18,64a2,2,0,1,0,2,2,2,2,0,0,0-2-2Z"/><path class="cls-1" d="M18,80a2,2,0,1,0,2,2,2,2,0,0,0-2-2Z"/><path class="cls-1" d="M18,96a2,2,0,1,0,2,2,2,2,0,0,0-2-2Z"/><path class="cls-1" d="M18,112a2,2,0,0,0-1.85,1.24,2,2,0,0,0,.44,2.17A2,2,0,0,0,20,114a2,2,0,0,0-2-2Z"/><path class="cls-1" d="M34,0a2,2,0,0,0-1.11.34A2,2,0,0,0,32,2.39,2,2,0,0,0,36,2,2,2,0,0,0,35.41.59,2,2,0,0,0,34,0Z"/><path class="cls-1" d="M34,16a2,2,0,1,0,2,2,2,2,0,0,0-2-2Z"/><path class="cls-1" d="M34,32a2,2,0,1,0,2,2,2,2,0,0,0-2-2Z"/><path class="cls-1" d="M34,48a2,2,0,1,0,2,2,2,2,0,0,0-2-2Z"/><path class="cls-1" d="M34,64a2,2,0,1,0,2,2,2,2,0,0,0-2-2Z"/><path class="cls-1" d="M34,80a2,2,0,1,0,2,2,2,2,0,0,0-2-2Z"/><path class="cls-1" d="M34,96a2,2,0,1,0,2,2,2,2,0,0,0-2-2Z"/><path class="cls-1" d="M34,112a2,2,0,0,0-1.85,1.24,2,2,0,0,0,.44,2.17A2,2,0,0,0,36,114a2,2,0,0,0-2-2Z"/><path class="cls-1" d="M50,0a2,2,0,0,0-1.11.34A2,2,0,0,0,48,2.39,2,2,0,0,0,52,2,2,2,0,0,0,51.41.59,2,2,0,0,0,50,0Z"/><path class="cls-1" d="M50,16a2,2,0,1,0,2,2,2,2,0,0,0-2-2Z"/><path class="cls-1" d="M50,32a2,2,0,1,0,2,2,2,2,0,0,0-2-2Z"/><path class="cls-1" d="M50,48a2,2,0,1,0,2,2,2,2,0,0,0-2-2Z"/><path class="cls-1" d="M50,64a2,2,0,1,0,2,2,2,2,0,0,0-2-2Z"/><path class="cls-1" d="M50,80a2,2,0,1,0,2,2,2,2,0,0,0-2-2Z"/><path class="cls-1" d="M50,96a2,2,0,1,0,2,2,2,2,0,0,0-2-2Z"/><path class="cls-1" d="M50,112a2,2,0,0,0-1.85,1.24,2,2,0,0,0,.44,2.17A2,2,0,0,0,52,114a2,2,0,0,0-2-2Z"/><path class="cls-1" d="M66,0a2,2,0,0,0-1.11.34A2,2,0,0,0,64,2.39,2,2,0,0,0,68,2,2,2,0,0,0,67.41.59,2,2,0,0,0,66,0Z"/><path class="cls-1" d="M66,16a2,2,0,1,0,2,2,2,2,0,0,0-2-2Z"/><path class="cls-1" d="M66,32a2,2,0,1,0,2,2,2,2,0,0,0-2-2Z"/><path class="cls-1" d="M66,48a2,2,0,1,0,2,2,2,2,0,0,0-2-2Z"/><path class="cls-1" d="M66,64a2,2,0,1,0,2,2,2,2,0,0,0-2-2Z"/><path class="cls-1" d="M66,80a2,2,0,1,0,2,2,2,2,0,0,0-2-2Z"/><path class="cls-1" d="M66,96a2,2,0,1,0,2,2,2,2,0,0,0-2-2Z"/><path class="cls-1" d="M66,112a2,2,0,0,0-1.85,1.24,2,2,0,0,0,.44,2.17A2,2,0,0,0,68,114a2,2,0,0,0-2-2Z"/><path class="cls-1" d="M82,0a2,2,0,0,0-1.11.34A2,2,0,0,0,80,2.39,2,2,0,0,0,84,2,2,2,0,0,0,83.41.59,2,2,0,0,0,82,0Z"/><path class="cls-1" d="M82,16a2,2,0,1,0,2,2,2,2,0,0,0-2-2Z"/><path class="cls-1" d="M82,32a2,2,0,1,0,2,2,2,2,0,0,0-2-2Z"/><path class="cls-1" d="M82,48a2,2,0,1,0,2,2,2,2,0,0,0-2-2Z"/><path class="cls-1" d="M82,64a2,2,0,1,0,2,2,2,2,0,0,0-2-2Z"/><path class="cls-1" d="M82,80a2,2,0,1,0,2,2,2,2,0,0,0-2-2Z"/><path class="cls-1" d="M82,96a2,2,0,1,0,2,2,2,2,0,0,0-2-2Z"/><path class="cls-1" d="M82,112a2,2,0,0,0-1.85,1.24,2,2,0,0,0,.44,2.17A2,2,0,0,0,84,114a2,2,0,0,0-2-2Z"/><path class="cls-1" d="M98,0a2,2,0,0,0-1.11.34A2,2,0,0,0,96,2.39,2,2,0,0,0,100,2,2,2,0,0,0,99.41.59,2,2,0,0,0,98,0Z"/><path class="cls-1" d="M98,16a2,2,0,1,0,2,2,2,2,0,0,0-2-2Z"/><path class="cls-1" d="M98,32a2,2,0,1,0,2,2,2,2,0,0,0-2-2Z"/><path class="cls-1" d="M98,48a2,2,0,1,0,2,2,2,2,0,0,0-2-2Z"/><path class="cls-1" d="M98,64a2,2,0,1,0,2,2,2,2,0,0,0-2-2Z"/><path class="cls-1" d="M98,80a2,2,0,1,0,2,2,2,2,0,0,0-2-2Z"/><path class="cls-1" d="M98,96a2,2,0,1,0,2,2,2,2,0,0,0-2-2Z"/><path class="cls-1" d="M98,112a2,2,0,0,0-1.85,1.24,2,2,0,0,0,.44,2.17A2,2,0,0,0,100,114a2,2,0,0,0-2-2Z"/></g></g></svg>