<svg xmlns="http://www.w3.org/2000/svg" viewBox="0 0 735.07 126.53"><defs><style>.cls-1{fill:#234d4d;}</style></defs><g id="Layer_2" data-name="Layer 2"><g id="Layer_1-2" data-name="Layer 1"><path class="cls-1" d="M105.49.35C98.21-.14,90.84.65,83.57.08,75.44-.57,70,2.88,66.15,9.54c-4.68,8.06-9.07,16.3-14,24.23-5.51,8.94-12.52,16.34-22.52,20.54-8.1,3.4-15.17.26-22.58-2.47C2,50-.71,52.66.16,58c.62,3.84,2.76,7,5.11,10C17.72,84,34.14,92.84,54.09,95.26c3.93.47,6.64,1.11,6.43,6.15-.22,5.4-3.88,4-6.91,4.46-6.73,1-13.49,1.82-20.14,3.22-3.54.74-8.18,1.46-8.27,6.28S29.83,121,33.29,122c10.29,2.75,20.88,3.34,34.07,3.38,9-.24,20.64-.49,31.8-4.19,2.84-.94,6-2.16,5.68-6.07-.25-3.4-3.12-4.37-5.75-5.22a90.86,90.86,0,0,0-24.54-4c-2.9-.11-4.83-.61-4.75-4.17.06-3,0-5.63,4-5.86,2-.12,4-.39,6-.67,21.68-3,36.57-17.11,38.57-37.4,1.33-13.54,1.85-27.17,2.25-40.77C120.92,6.05,116.32,1.06,105.49.35ZM32.34,61.66c34.15,15,65.92,13.12,65.92,13.12C56.62,80.29,32.34,61.66,32.34,61.66Z"/><path d="M195.44,64.78h-6.18L175.62,17.55c-.33-1.12-.58-2.21-.78-3.24a20.33,20.33,0,0,1-.33-3h-.18A28.27,28.27,0,0,1,173,17.46L158.91,64.78h-6.17L133.94,1.07h6.58l14,50c.33,1.1.58,2.14.78,3.14s.34,1.94.46,2.86H156a43.56,43.56,0,0,1,1.47-6l14.93-50H177l14,50.16c.27,1,.5,2,.71,3s.37,1.9.49,2.82h.18a14.58,14.58,0,0,1,.35-2c.18-.74.39-1.57.62-2.49l14-51.45h6.44Z"/><path d="M249.69,65.89a29.51,29.51,0,0,1-12.4-2.51,27.5,27.5,0,0,1-9.35-6.86A30.69,30.69,0,0,1,222,46.28,37.87,37.87,0,0,1,220,33.64,42.94,42.94,0,0,1,222,20a29.9,29.9,0,0,1,6-10.62,27.33,27.33,0,0,1,9.69-6.88A32.64,32.64,0,0,1,250.8,0a29.29,29.29,0,0,1,12.13,2.42,26.68,26.68,0,0,1,9.15,6.71,29.92,29.92,0,0,1,5.8,10.15,38.84,38.84,0,0,1,2,12.76,44.33,44.33,0,0,1-2,13.44,31,31,0,0,1-5.82,10.73,27.07,27.07,0,0,1-9.47,7.11A30.89,30.89,0,0,1,249.69,65.89Zm.49-60.51a22.81,22.81,0,0,0-10.24,2.2,22.21,22.21,0,0,0-7.53,5.95,25.91,25.91,0,0,0-4.65,8.8,36.78,36.78,0,0,0-1.62,10.73,35.88,35.88,0,0,0,1.4,10.37,26.35,26.35,0,0,0,4.35,8.76,21.37,21.37,0,0,0,7.36,6.06,22.6,22.6,0,0,0,10.39,2.27,24.89,24.89,0,0,0,10.47-2.07,21,21,0,0,0,7.53-5.73A24.93,24.93,0,0,0,272.19,44a37.83,37.83,0,0,0,1.54-11.07,40.22,40.22,0,0,0-1.36-10.61,25,25,0,0,0-4.22-8.78,20.43,20.43,0,0,0-7.31-5.95A23.77,23.77,0,0,0,250.18,5.38Z"/><path d="M318.6,65.89a29.43,29.43,0,0,1-12.39-2.51,27.54,27.54,0,0,1-9.36-6.86A30.5,30.5,0,0,1,291,46.28a37.87,37.87,0,0,1-2.07-12.64A42.94,42.94,0,0,1,291,20a29.75,29.75,0,0,1,6-10.62,27.2,27.2,0,0,1,9.68-6.88A32.69,32.69,0,0,1,319.72,0a29.32,29.32,0,0,1,12.13,2.42A26.68,26.68,0,0,1,341,9.13a29.92,29.92,0,0,1,5.8,10.15,39.11,39.11,0,0,1,2,12.76,44,44,0,0,1-2,13.44A31,31,0,0,1,341,56.21a27,27,0,0,1-9.46,7.11A30.94,30.94,0,0,1,318.6,65.89Zm.49-60.51a22.84,22.84,0,0,0-10.24,2.2,22.21,22.21,0,0,0-7.53,5.95,26.06,26.06,0,0,0-4.64,8.8,36.78,36.78,0,0,0-1.63,10.73,36.23,36.23,0,0,0,1.4,10.37,26.56,26.56,0,0,0,4.36,8.76,21.33,21.33,0,0,0,7.35,6.06,22.61,22.61,0,0,0,10.4,2.27A24.81,24.81,0,0,0,329,58.45a21,21,0,0,0,7.54-5.73A24.93,24.93,0,0,0,341.11,44a38.17,38.17,0,0,0,1.53-11.07,40.64,40.64,0,0,0-1.35-10.61,25.14,25.14,0,0,0-4.22-8.78,20.43,20.43,0,0,0-7.31-5.95A23.81,23.81,0,0,0,319.09,5.38Z"/><path d="M361.57,64.78V1.07h16.75q16.35,0,24.71,7.84t8.35,23.17a37.1,37.1,0,0,1-2.33,13.42,28.58,28.58,0,0,1-6.74,10.33,30.07,30.07,0,0,1-10.66,6.62,40.42,40.42,0,0,1-14.13,2.33Zm5.91-58.29V59.41h9.77A36.23,36.23,0,0,0,389,57.63a23.69,23.69,0,0,0,8.77-5.22,22.43,22.43,0,0,0,5.49-8.51,33.2,33.2,0,0,0,1.89-11.64q0-25.77-27.24-25.77Z"/><path class="cls-1" d="M497.13,4.13,481.05,64.78H465.41l-8.49-33.45-8,33.45H432.6L416.49,4.13H434L442.49,39l8.28-34.91h14.61l9,35,8.49-35Z"/><path class="cls-1" d="M527.79,65.72q-12.79,0-20.86-8.49t-8.06-22.71q0-13.59,7.71-22.46T528,3.2q12.66,0,20.64,8.35t8,22.31q0,14.43-8,23.15T527.79,65.72Zm-.09-13.78a7,7,0,0,0,6.78-4.11q2.07-4.11,2.07-15,0-15.81-8.49-15.82-9.15,0-9.15,18Q518.91,51.94,527.7,51.94Z"/><path class="cls-1" d="M618.43,64.78H597.8l-8.86-23.19h-5.87V64.78H564.45V4.13h31.68q10.49,0,16.28,4.91a16.13,16.13,0,0,1,5.8,13,19.5,19.5,0,0,1-2.13,9.27q-2.13,4-8.62,7.09ZM583.07,28.61H591a9.75,9.75,0,0,0,5.64-1.46,4.91,4.91,0,0,0,2.14-4.31q0-5.82-7.16-5.82h-8.57Z"/><path class="cls-1" d="M681.93,64.78H661.56L651.07,41.86l-6.29,8.93v14H627.23V4.13h17.55V29.21L661.51,4.13h16.73l-15.32,22.2Z"/><path class="cls-1" d="M680.64,47.23l17.28-3.11q2.18,7.34,11.2,7.33,7,0,7-3.73a3.46,3.46,0,0,0-1.62-3,17.33,17.33,0,0,0-5.8-1.93q-16-3.06-20.48-8a16.61,16.61,0,0,1-4.53-11.61,18.14,18.14,0,0,1,6.5-14.26q6.51-5.69,18.73-5.69,18.54,0,24.49,14.88L718,22.75q-2.4-6.09-9.73-6.09-6.09,0-6.09,3.78a3,3,0,0,0,1.38,2.62,16.76,16.76,0,0,0,5.33,1.77,113,113,0,0,1,15.46,4.08A16.69,16.69,0,0,1,732,35a17,17,0,0,1,3.06,10.11A17.91,17.91,0,0,1,727.6,60q-7.46,5.72-19.59,5.72Q685.84,65.72,680.64,47.23Z"/><path d="M140.61,100.88h11.77l-.33,1.6H142l-2.2,10.29h9.32l-.32,1.58h-9.33L137,126.09h-1.72Z"/><path d="M201.61,100.88h1.74l-2.88,13.77a20.24,20.24,0,0,0-.55,4.13q0,6.15,6.12,6.15A7,7,0,0,0,211.3,123a12.2,12.2,0,0,0,2.77-6l3.4-16.07h1.72l-3.29,15.6c-.78,3.66-2,6.26-3.52,7.78a9.22,9.22,0,0,1-6.66,2.27,7.55,7.55,0,0,1-5.55-2,7.31,7.31,0,0,1-2-5.48,19.44,19.44,0,0,1,.42-3.82Z"/><path d="M270,100.88h6.43a6.67,6.67,0,0,1,4.76,1.6,5.94,5.94,0,0,1,1.69,4.54,7,7,0,0,1-2.13,5.19,8.4,8.4,0,0,1-5.6,2.3v.07q1.66.75,2.37,3.48l2,8h-1.85l-1.86-7.59a5.31,5.31,0,0,0-1.43-2.75,4.12,4.12,0,0,0-2.86-.89h-2.78l-2.37,11.23h-1.72Zm3.77,12.4a8.06,8.06,0,0,0,5.37-1.65,5.65,5.65,0,0,0,2-4.54,4.42,4.42,0,0,0-1.29-3.4,5.14,5.14,0,0,0-3.62-1.21h-4.78l-2.3,10.8Z"/><path d="M334.57,100.88h1.18l10.78,20.2a17.11,17.11,0,0,1,.75,1.62h.07l.26-1.62,4.28-20.2h1.72l-5.36,25.21h-1l-10.92-20.37-.72-1.58h-.07l-.08.54-4.56,21.41h-1.68Z"/><path d="M404.73,100.88h1.73l-5.33,25.21h-1.72Z"/><path d="M462.33,102.48h-7.26l.32-1.6h16.27l-.33,1.6h-7.26l-5,23.61h-1.72Z"/><path d="M520.26,100.88H522l-2.88,13.77a20.24,20.24,0,0,0-.55,4.13q0,6.15,6.12,6.15a7,7,0,0,0,5.25-1.94,12.11,12.11,0,0,0,2.78-6l3.39-16.07h1.73l-3.29,15.6c-.78,3.66-2,6.26-3.52,7.78a9.22,9.22,0,0,1-6.66,2.27,7.55,7.55,0,0,1-5.55-2,7.32,7.32,0,0,1-2-5.48,18.77,18.77,0,0,1,.43-3.82Z"/><path d="M588.59,100.88H595a6.67,6.67,0,0,1,4.76,1.6,5.94,5.94,0,0,1,1.69,4.54,7,7,0,0,1-2.13,5.19,8.43,8.43,0,0,1-5.61,2.3v.07c1.12.5,1.91,1.66,2.38,3.48l2,8h-1.85l-1.86-7.59a5.31,5.31,0,0,0-1.43-2.75,4.12,4.12,0,0,0-2.86-.89h-2.78L585,126.09h-1.72Zm3.78,12.4a8,8,0,0,0,5.36-1.65,5.63,5.63,0,0,0,2-4.54,4.39,4.39,0,0,0-1.3-3.4,5.1,5.1,0,0,0-3.61-1.21H590l-2.3,10.8Z"/><path d="M653.22,100.88H665l-.34,1.6h-10l-2.17,10.11h9.32l-.32,1.58h-9.33L650,124.51h10.62l-.34,1.58H647.89Z"/><path d="M709.69,123.21a11.27,11.27,0,0,0,5.94,1.72,6.9,6.9,0,0,0,4.44-1.29,4.4,4.4,0,0,0,1.61-3.63,5.07,5.07,0,0,0-.91-2.94,13.84,13.84,0,0,0-3.12-2.9,13.26,13.26,0,0,1-3.47-3.34,6.46,6.46,0,0,1-1-3.56,6.07,6.07,0,0,1,2.29-4.9,8.64,8.64,0,0,1,5.71-1.91,14.81,14.81,0,0,1,5.11.93l-.37,1.8a9.94,9.94,0,0,0-4.92-1.14,6.64,6.64,0,0,0-4.36,1.37,4.59,4.59,0,0,0-1.65,3.71,5.28,5.28,0,0,0,.8,3,13.26,13.26,0,0,0,3.12,2.91,15,15,0,0,1,3.56,3.31,6,6,0,0,1,1,3.49,6.09,6.09,0,0,1-2.16,4.92,8.74,8.74,0,0,1-5.8,1.81,13.68,13.68,0,0,1-3.33-.41,12.65,12.65,0,0,1-2.83-1.07Z"/></g></g></svg>